<svg width="500" height="500" viewBox="0 0 500 500" fill="none" xmlns="http://www.w3.org/2000/svg">
<g clip-path="url(#clip0_288_2)">
<g clip-path="url(#clip1_288_2)">
<path d="M213.862 123.493C201.489 134.976 187.2 149.897 173 168.281C204.576 134.737 231.414 166.367 250.855 189.901C270.133 209.166 301.066 250.554 301.066 278.268C301.066 289.966 297.047 300.719 290.331 309.256C313.351 286.39 359.971 232.372 342.457 187.269C323.973 159.92 304.241 138.716 287.849 123.505C267.008 104.165 234.715 104.165 213.862 123.505V123.493Z" fill="url(#paint0_radial_288_2)"/>
<path d="M358.142 375.425C385.333 367.064 401.474 339.111 395.136 311.397C388.899 284.149 377.181 247.722 355.194 209.67C350.797 202.052 346.235 194.837 341.611 188C359.125 233.103 312.505 287.121 289.485 309.987C280.287 321.672 266.037 329.176 250.009 329.176C223.764 329.176 202.23 309.042 200 283.393C200.088 315.477 212.209 380.273 272.853 390.988C306.974 388.835 336.181 382.187 358.142 375.425Z" fill="url(#paint1_radial_288_2)"/>
<path d="M200.491 282.674C200.365 281.226 200.289 279.766 200.289 278.28C200.289 250.566 231.222 209.177 250.5 189.912C231.058 166.379 204.22 134.749 172.645 168.293C163.321 180.343 154.035 193.879 145.315 208.951C123.328 247.002 111.61 283.43 105.373 310.678C99.0356 338.392 115.176 366.345 142.367 374.706C169.104 382.928 206.526 390.999 250.5 390.999C258.337 390.999 265.948 390.735 273.344 390.269C212.7 379.553 200.579 314.757 200.491 282.674Z" fill="url(#paint2_radial_288_2)"/>
</g>
<g filter="url(#filter0_i_288_2)">
<path d="M215.44 427L204.29 452H200.49L195.29 439.25L188.84 452H185.04L177.24 432.95L172.59 430.25V428.7L181.14 424.5L183.04 432.05L189.14 446.9L194.04 436.35L192.64 432.95L187.99 430.25V428.7L196.54 424.5L198.44 432.05L204.39 446.5L210.39 432.5L203.44 427.45L204.44 425.45H215.44V427ZM245.084 452H235.584V447.65L229.934 452.1C229.268 452.367 228.434 452.5 227.434 452.5C224.568 452.5 222.484 451.783 221.184 450.35C219.918 448.917 219.284 447.2 219.284 445.2C219.284 444 219.718 442.817 220.584 441.65C221.451 440.483 222.684 439.383 224.284 438.35H235.584V435.15C235.584 432.983 235.001 431.45 233.834 430.55C232.701 429.65 231.134 429.2 229.134 429.2C227.068 429.2 224.534 430.45 221.534 432.95L220.034 431.05L227.234 425.35C228.568 425.083 230.168 424.95 232.034 424.95C235.068 424.95 237.418 425.7 239.084 427.2C240.751 428.667 241.584 430.817 241.584 433.65V448.25L246.084 450L245.084 452ZM229.034 448.25C231.068 448.25 233.251 447.317 235.584 445.45V440.4H226.734C226.301 440.933 225.984 441.467 225.784 442C225.618 442.533 225.534 443.117 225.534 443.75C225.534 444.983 225.851 446.05 226.484 446.95C227.118 447.817 227.968 448.25 229.034 448.25ZM264.339 452.1C263.572 452.367 262.639 452.5 261.539 452.5C258.772 452.5 256.739 451.783 255.439 450.35C254.172 448.883 253.539 446.633 253.539 443.6V429H248.139V426.95L257.639 415.9H259.539V426.95H268.539V429H259.539V444.2C259.539 446.9 260.839 448.25 263.439 448.25C264.139 448.25 264.806 448.1 265.439 447.8C266.106 447.5 266.922 446.967 267.889 446.2L269.389 448.1L264.339 452.1ZM289.453 452.1C288.12 452.367 286.52 452.5 284.653 452.5C282.453 452.5 280.47 451.933 278.703 450.8C276.97 449.633 275.603 448.067 274.603 446.1C273.637 444.133 273.153 441.967 273.153 439.6C273.153 437.033 273.937 434.633 275.503 432.4C277.07 430.133 279.02 428.333 281.353 427C283.72 425.633 286.003 424.95 288.203 424.95C291.37 424.95 293.82 426.2 295.553 428.7C297.32 431.2 298.203 434.5 298.203 438.6H279.703C279.903 441.433 280.67 443.75 282.003 445.55C283.37 447.35 285.22 448.25 287.553 448.25C289.72 448.25 292.803 446.567 296.803 443.2L298.303 445.1L289.453 452.1ZM285.303 429.15C281.703 429.15 279.82 431.617 279.653 436.55H291.353C291.053 434.75 290.737 433.383 290.403 432.45C290.103 431.483 289.553 430.7 288.753 430.1C287.987 429.467 286.837 429.15 285.303 429.15ZM322.582 425C323.682 425 324.649 425.3 325.482 425.9C326.316 426.5 326.966 427.333 327.432 428.4L324.132 432.55H322.232C322.099 431.717 321.849 431.133 321.482 430.8C321.149 430.433 320.682 430.25 320.082 430.25C319.349 430.25 318.566 430.45 317.732 430.85C316.932 431.217 316.016 431.933 314.982 433V447.9L321.982 450.05L320.982 452.05H304.532V450.5L308.982 447V432.85L304.532 430.25V428.7L313.082 424.5L314.632 430.65L319.832 425.35C320.532 425.083 321.449 424.95 322.582 424.95V425Z" fill="#99D3FF"/>
</g>
<g filter="url(#filter1_i_288_2)">
<path d="M166.936 141.584L157.911 156.811L155.502 155.383L154.501 149.326L145.124 143.769L136.482 158.35L147.493 164.876L151.699 160.918L153.679 163.951L144.655 179.178L142.246 177.75L141.244 171.693L117.415 157.57L113.209 161.528L111.254 158.452L120.279 143.225L122.688 144.653L123.707 150.779L133.17 156.387L141.812 141.806L130.671 135.203L126.465 139.162L124.511 136.085L133.535 120.859L135.944 122.286L136.963 128.412L160.792 142.535L164.955 138.551L166.936 141.584Z" fill="black"/>
<path d="M166.936 141.584L157.911 156.811L155.502 155.383L154.501 149.326L145.124 143.769L136.482 158.35L147.493 164.876L151.699 160.918L153.679 163.951L144.655 179.178L142.246 177.75L141.244 171.693L117.415 157.57L113.209 161.528L111.254 158.452L120.279 143.225L122.688 144.653L123.707 150.779L133.17 156.387L141.812 141.806L130.671 135.203L126.465 139.162L124.511 136.085L133.535 120.859L135.944 122.286L136.963 128.412L160.792 142.535L164.955 138.551L166.936 141.584Z" fill="#99D3FF"/>
<path d="M195 109.895L187.564 118.536L184.267 115.699L183.955 122.884C183.722 123.563 183.279 124.282 182.627 125.04C180.54 127.465 178.435 128.71 176.312 128.775C174.212 128.814 172.328 128.116 170.66 126.681C169.675 125.833 168.975 124.703 168.562 123.293C168.124 121.86 167.99 120.227 168.16 118.395L176.346 108.882L175.702 108.328C174.312 107.132 172.963 106.63 171.654 106.823C170.345 107.015 169.146 107.743 168.059 109.007C166.537 110.775 165.243 113.685 164.175 117.736L161.037 117.014L161.325 108.093C162.055 106.478 163.16 104.812 164.638 103.094C167.073 100.264 169.598 98.6332 172.213 98.2009C174.85 97.7434 177.394 98.5691 179.844 100.678L189.319 108.832L193.581 106.563L195 109.895ZM179.212 118.736C180.321 117.448 181.008 115.576 181.273 113.122L178.848 111.035L173.597 117.136C173.726 117.599 173.886 118.001 174.077 118.341C174.264 118.634 174.522 118.922 174.851 119.205C175.482 119.749 176.198 119.991 176.997 119.931C177.818 119.845 178.544 119.437 179.174 118.704L179.212 118.736Z" fill="black"/>
<path d="M195 109.895L187.564 118.536L184.267 115.699L183.955 122.884C183.722 123.563 183.279 124.282 182.627 125.04C180.54 127.465 178.435 128.71 176.312 128.775C174.212 128.814 172.328 128.116 170.66 126.681C169.675 125.833 168.975 124.703 168.562 123.293C168.124 121.86 167.99 120.227 168.16 118.395L176.346 108.882L175.702 108.328C174.312 107.132 172.963 106.63 171.654 106.823C170.345 107.015 169.146 107.743 168.059 109.007C166.537 110.775 165.243 113.685 164.175 117.736L161.037 117.014L161.325 108.093C162.055 106.478 163.16 104.812 164.638 103.094C167.073 100.264 169.598 98.6332 172.213 98.2009C174.85 97.7434 177.394 98.5691 179.844 100.678L189.319 108.832L193.581 106.563L195 109.895ZM179.212 118.736C180.321 117.448 181.008 115.576 181.273 113.122L178.848 111.035L173.597 117.136C173.726 117.599 173.886 118.001 174.077 118.341C174.264 118.634 174.522 118.922 174.851 119.205C175.482 119.749 176.198 119.991 176.997 119.931C177.818 119.845 178.544 119.437 179.174 118.704L179.212 118.736Z" fill="#99D3FF"/>
<path d="M211.345 79.5846C210.245 80.0645 209.358 81.0332 208.685 82.4907L214.083 94.8643L221.849 93.6583L221.682 97.277L204.313 104.855L203.193 102.288L205.773 97.0718L201.234 86.6688L196.035 85.882L194.916 83.3156L202.689 75.1239L206.649 79.451L208.94 73.3237C209.475 72.7993 210.17 72.3505 211.026 71.9773C212.615 71.2842 214.134 71.0576 215.584 71.2977C217.065 71.5244 218.315 72.1794 219.333 73.2626L217.333 80.6815L214.446 81.9411C213.935 80.8546 213.443 80.1422 212.968 79.8038C212.479 79.435 211.945 79.3772 211.365 79.6304L211.345 79.5846Z" fill="black"/>
<path d="M211.345 79.5846C210.245 80.0645 209.358 81.0332 208.685 82.4907L214.083 94.8643L221.849 93.6583L221.682 97.277L204.313 104.855L203.193 102.288L205.773 97.0718L201.234 86.6688L196.035 85.882L194.916 83.3156L202.689 75.1239L206.649 79.451L208.94 73.3237C209.475 72.7993 210.17 72.3505 211.026 71.9773C212.615 71.2842 214.134 71.0576 215.584 71.2977C217.065 71.5244 218.315 72.1794 219.333 73.2626L217.333 80.6815L214.446 81.9411C213.935 80.8546 213.443 80.1422 212.968 79.8038C212.479 79.435 211.945 79.3772 211.365 79.6304L211.345 79.5846Z" fill="#99D3FF"/>
<path d="M286.681 96.4113L275.289 95.985L275.91 79.3966C275.961 78.0309 275.78 77.0735 275.367 76.5243C274.988 75.9431 274.249 75.6319 273.15 75.5908C271.518 75.5297 269.898 76.0361 268.29 77.1101L267.768 91.0503L271.913 92.6064L270.193 95.7943L259.1 95.3792L259.721 78.7908C259.772 77.4251 259.591 76.4677 259.178 75.9185C258.8 75.3373 258.061 75.0261 256.961 74.985C255.329 74.9239 253.726 75.431 252.151 76.5062L251.63 90.4464L255.724 92.0006L254.004 95.1885L238.515 94.6089L238.619 91.8109L243.207 88.2299L243.631 76.8878L239.289 73.9234L239.393 71.1254L249.951 67.1173L251.682 72.9862L257.863 68.264C258.673 68.0274 259.594 67.9285 260.626 67.9671C262.592 68.0407 264.223 68.5687 265.521 69.5512C266.853 70.5017 267.722 71.7851 268.128 73.4015L274.102 68.8717C274.911 68.6351 275.832 68.5361 276.865 68.5748C279.297 68.6658 281.202 69.4376 282.582 70.8902C283.997 72.3107 284.66 74.2035 284.572 76.5685L284.011 91.558L288.401 93.2234L286.681 96.4113Z" fill="black"/>
<path d="M286.681 96.4113L275.289 95.985L275.91 79.3966C275.961 78.0309 275.78 77.0735 275.367 76.5243C274.988 75.9431 274.249 75.6319 273.15 75.5908C271.518 75.5297 269.898 76.0361 268.29 77.1101L267.768 91.0503L271.913 92.6064L270.193 95.7943L259.1 95.3792L259.721 78.7908C259.772 77.4251 259.591 76.4677 259.178 75.9185C258.8 75.3373 258.061 75.0261 256.961 74.985C255.329 74.9239 253.726 75.431 252.151 76.5062L251.63 90.4464L255.724 92.0006L254.004 95.1885L238.515 94.6089L238.619 91.8109L243.207 88.2299L243.631 76.8878L239.289 73.9234L239.393 71.1254L249.951 67.1173L251.682 72.9862L257.863 68.264C258.673 68.0274 259.594 67.9285 260.626 67.9671C262.592 68.0407 264.223 68.5687 265.521 69.5512C266.853 70.5017 267.722 71.7851 268.128 73.4015L274.102 68.8717C274.911 68.6351 275.832 68.5361 276.865 68.5748C279.297 68.6658 281.202 69.4376 282.582 70.8902C283.997 72.3107 284.66 74.2035 284.572 76.5685L284.011 91.558L288.401 93.2234L286.681 96.4113Z" fill="#99D3FF"/>
<path d="M321.82 89.7313C324.001 90.8839 325.673 92.4276 326.837 94.3625C328.017 96.2679 328.611 98.3539 328.62 100.621C328.658 102.903 328.108 105.12 326.971 107.271C325.741 109.599 323.837 111.383 321.259 112.622C318.697 113.831 315.962 114.441 313.054 114.45C310.191 114.445 307.714 113.889 305.621 112.784C303.47 111.647 301.79 110.118 300.581 108.197C299.416 106.262 298.815 104.153 298.777 101.871C298.769 99.6044 299.333 97.3954 300.47 95.244C301.701 92.9158 303.597 91.1469 306.159 89.9373C308.737 88.6982 311.457 88.0811 314.32 88.086C317.228 88.077 319.728 88.6255 321.82 89.7313ZM316.546 93.5041C315.308 92.85 314.1 92.8525 312.922 93.5119C311.79 94.1573 310.709 95.4526 309.681 97.3976C308.373 99.8731 307.784 102.201 307.913 104.381C308.059 106.531 309.045 108.089 310.872 109.055C312.08 109.694 313.259 109.675 314.407 109.001C315.601 108.312 316.711 106.995 317.739 105.05C319.048 102.574 319.621 100.276 319.461 98.155C319.315 96.0045 318.344 94.4542 316.546 93.5041Z" fill="black"/>
<path d="M321.82 89.7313C324.001 90.8839 325.673 92.4276 326.837 94.3625C328.017 96.2679 328.611 98.3539 328.62 100.621C328.658 102.903 328.108 105.12 326.971 107.271C325.741 109.599 323.837 111.383 321.259 112.622C318.697 113.831 315.962 114.441 313.054 114.45C310.191 114.445 307.714 113.889 305.621 112.784C303.47 111.647 301.79 110.118 300.581 108.197C299.416 106.262 298.815 104.153 298.777 101.871C298.769 99.6044 299.333 97.3954 300.47 95.244C301.701 92.9158 303.597 91.1469 306.159 89.9373C308.737 88.6982 311.457 88.0811 314.32 88.086C317.228 88.077 319.728 88.6255 321.82 89.7313ZM316.546 93.5041C315.308 92.85 314.1 92.8525 312.922 93.5119C311.79 94.1573 310.709 95.4526 309.681 97.3976C308.373 99.8731 307.784 102.201 307.913 104.381C308.059 106.531 309.045 108.089 310.872 109.055C312.08 109.694 313.259 109.675 314.407 109.001C315.601 108.312 316.711 106.995 317.739 105.05C319.048 102.574 319.621 100.276 319.461 98.155C319.315 96.0045 318.344 94.4542 316.546 93.5041Z" fill="#99D3FF"/>
<path d="M342.652 152.974L335.912 143.842L348.785 134.341C350.046 133.411 350.783 132.556 350.995 131.778C351.255 131.007 351.028 130.138 350.315 129.173C349.266 127.751 347.771 126.68 345.83 125.958L334.686 134.182L336.152 138.694L332.557 139.296L323.174 126.584L325.427 124.921L331.087 126.275L340.219 119.535L339.83 114.292L342.082 112.629L351.798 118.384L348.29 123.397L355.954 125.446C356.703 126.012 357.414 126.751 358.087 127.663C359.592 129.701 360.226 131.739 359.99 133.777C359.801 135.823 358.754 137.548 356.85 138.953L344.781 147.861L346.247 152.372L342.652 152.974Z" fill="black"/>
<path d="M342.652 152.974L335.912 143.842L348.785 134.341C350.046 133.411 350.783 132.556 350.995 131.778C351.255 131.007 351.028 130.138 350.315 129.173C349.266 127.751 347.771 126.68 345.83 125.958L334.686 134.182L336.152 138.694L332.557 139.296L323.174 126.584L325.427 124.921L331.087 126.275L340.219 119.535L339.83 114.292L342.082 112.629L351.798 118.384L348.29 123.397L355.954 125.446C356.703 126.012 357.414 126.751 358.087 127.663C359.592 129.701 360.226 131.739 359.99 133.777C359.801 135.823 358.754 137.548 356.85 138.953L344.781 147.861L346.247 152.372L342.652 152.974Z" fill="#99D3FF"/>
<path d="M391.447 171.033L364.718 176.745L347.053 176.224L346.906 172.236C350.764 172.22 353.832 171.909 356.109 171.305C358.361 170.721 360.577 169.602 362.757 167.948L369.712 154.61L368.74 149.095L370.886 147.296L381.204 153.063L376.641 159.371L369.953 172.093L382.881 169.146L382.003 160.551L385.521 159.688L393.592 169.233L391.447 171.033Z" fill="black"/>
<path d="M391.447 171.033L364.718 176.745L347.053 176.224L346.906 172.236C350.764 172.22 353.832 171.909 356.109 171.305C358.361 170.721 360.577 169.602 362.757 167.948L369.712 154.61L368.74 149.095L370.886 147.296L381.204 153.063L376.641 159.371L369.953 172.093L382.881 169.146L382.003 160.551L385.521 159.688L393.592 169.233L391.447 171.033Z" fill="#99D3FF"/>
</g>
</g>
<defs>
<filter id="filter0_i_288_2" x="172.59" y="415.9" width="157.842" height="37.5996" filterUnits="userSpaceOnUse" color-interpolation-filters="sRGB">
<feFlood flood-opacity="0" result="BackgroundImageFix"/>
<feBlend mode="normal" in="SourceGraphic" in2="BackgroundImageFix" result="shape"/>
<feColorMatrix in="SourceAlpha" type="matrix" values="0 0 0 0 0 0 0 0 0 0 0 0 0 0 0 0 0 0 127 0" result="hardAlpha"/>
<feOffset dx="5" dy="1"/>
<feGaussianBlur stdDeviation="1.5"/>
<feComposite in2="hardAlpha" operator="arithmetic" k2="-1" k3="1"/>
<feColorMatrix type="matrix" values="0 0 0 0 0 0 0 0 0 0 0 0 0 0 0 0 0 0 0.25 0"/>
<feBlend mode="normal" in2="shape" result="effect1_innerShadow_288_2"/>
</filter>
<filter id="filter1_i_288_2" x="110.413" y="66.7285" width="283.868" height="132.307" filterUnits="userSpaceOnUse" color-interpolation-filters="sRGB">
<feFlood flood-opacity="0" result="BackgroundImageFix"/>
<feBlend mode="normal" in="SourceGraphic" in2="BackgroundImageFix" result="shape"/>
<feColorMatrix in="SourceAlpha" type="matrix" values="0 0 0 0 0 0 0 0 0 0 0 0 0 0 0 0 0 0 127 0" result="hardAlpha"/>
<feOffset dy="4"/>
<feGaussianBlur stdDeviation="2"/>
<feComposite in2="hardAlpha" operator="arithmetic" k2="-1" k3="1"/>
<feColorMatrix type="matrix" values="0 0 0 0 0 0 0 0 0 0 0 0 0 0 0 0 0 0 0.25 0"/>
<feBlend mode="normal" in2="shape" result="effect1_innerShadow_288_2"/>
</filter>
<radialGradient id="paint0_radial_288_2" cx="0" cy="0" r="1" gradientUnits="userSpaceOnUse" gradientTransform="translate(303.284 270.889) rotate(-109.614) scale(191.501 191.373)">
<stop stop-color="#0091FF"/>
<stop offset="0.49" stop-color="#99D3FF"/>
<stop offset="1" stop-color="#CCE9FF"/>
</radialGradient>
<radialGradient id="paint1_radial_288_2" cx="0" cy="0" r="1" gradientUnits="userSpaceOnUse" gradientTransform="translate(193.486 325.16) scale(192.351 192.222)">
<stop stop-color="#0091FF"/>
<stop offset="0.49" stop-color="#99D3FF"/>
<stop offset="1" stop-color="#CCE9FF"/>
</radialGradient>
<radialGradient id="paint2_radial_288_2" cx="0" cy="0" r="1" gradientUnits="userSpaceOnUse" gradientTransform="translate(215.422 163.81) scale(232.205 232.049)">
<stop stop-color="#0091FF"/>
<stop offset="0.49" stop-color="#99D3FF"/>
<stop offset="1" stop-color="#CCE9FF"/>
</radialGradient>
<clipPath id="clip0_288_2">
<rect width="500" height="500" fill="white"/>
</clipPath>
<clipPath id="clip1_288_2">
<rect width="293" height="282" fill="white" transform="translate(104 109)"/>
</clipPath>
</defs>
</svg>
